<svg id="Layer_1" data-name="Layer 1" xmlns="http://www.w3.org/2000/svg" viewBox="0 0 179.02 99.21"><title>551749-200</title><path d="M196.11,304.13c1.36.95,4.31,2.45,6.55,4.66q32.11,31.86,64,63.92c6.8,6.79,10.2,6.76,17.1-.15,21.33-21.32,42.6-42.7,64.05-63.89,2.1-2.08,5.31-4.27,7.94-4.2a11,11,0,0,1,8,4.53c1.32,2.14.45,5.89-.11,8.8-.28,1.4-2,2.57-3.18,3.74q-38.51,38.55-77,77.06c-6.25,6.26-9.91,6.32-16,.24q-38.71-38.7-77.38-77.43a18.34,18.34,0,0,1-3.84-5.13C183.52,310.37,187.79,304.11,196.11,304.13Z" transform="translate(-185.39 -304.13)"/></svg>