<svg id="Layer_1" data-name="Layer 1" xmlns="http://www.w3.org/2000/svg" viewBox="0 0 491.66 491.7"><defs><style>.cls-1{fill:#fff;}</style></defs><title>dollar-icon-8</title><path class="cls-1" d="M69.75,363.35C69,498.33,179.05,608.92,315,609.71c135,.78,245.63-109.26,246.43-245.14C562.2,229.19,452.14,118.64,315.93,118,180.78,117.39,70.54,227.26,69.75,363.35Z" transform="translate(-69.74 -118.01)"/><path d="M69.75,363.35c.79-136.09,111-246,246.18-245.34,136.21.63,246.27,111.18,245.47,246.56C560.6,500.45,450,610.49,315,609.71,179.05,608.92,69,498.33,69.75,363.35ZM303.68,531.44h33.08V498.22c9.46-3.31,18.59-5.57,26.89-9.56,46.83-22.51,52.54-74.19,32.8-106.06-8.5-13.73-20.8-23.4-34.81-30.75-11.91-6.25-24.36-11.49-36.57-17.18-11.75-5.47-24-10.1-33.61-19.28-13.52-13-11.23-31.22,5.38-39.84,14.86-7.7,30.4-8.07,45.75-1.13,8.1,3.67,12.9,9.79,12.09,19.3-.22,2.59,0,5.21,0,8h43.88c0-8.42.09-16.55,0-24.67A39.46,39.46,0,0,0,388.58,251c-9.91-11.4-23-17.26-37.21-21.11-4.76-1.3-9.64-2.16-14.84-3.31V192.84H303.61v32.6c-11.45,4.34-22.63,7.42-32.71,12.63-34.79,18-47.22,58.28-29.18,92.69,8.88,16.92,23.4,28.05,39.76,36.77,14.82,7.9,30.31,14.53,45.18,22.33,7.75,4.07,15.53,8.64,22,14.41,14,12.42,11.89,33.25-3.73,43.64-7.91,5.26-16.85,7.07-26.17,6.78-17.69-.56-32.51-7.93-45-20.13-5.32-5.21-9.93-11.13-15-16.94l-33.31,27.85c17.74,27.32,41.63,45.06,73.55,51.06,3.93.74,4.78,2.22,4.71,5.78C303.56,511.93,303.68,521.55,303.68,531.44Z" transform="translate(-69.74 -118.01)"/><path class="cls-1" d="M303.68,531.44c0-9.89-.12-19.51.06-29.13.07-3.56-.78-5-4.71-5.78-31.92-6-55.81-23.74-73.55-51.06l33.31-27.85c5.12,5.81,9.73,11.73,15,16.94,12.44,12.2,27.26,19.57,45,20.13,9.32.29,18.26-1.52,26.17-6.78,15.62-10.39,17.73-31.22,3.73-43.64-6.5-5.77-14.28-10.34-22-14.41-14.87-7.8-30.36-14.43-45.18-22.33-16.36-8.72-30.88-19.85-39.76-36.77-18-34.41-5.61-74.69,29.18-92.69,10.08-5.21,21.26-8.29,32.71-12.63v-32.6h32.92v33.74c5.2,1.15,10.08,2,14.84,3.31,14.19,3.85,27.3,9.71,37.21,21.11a39.46,39.46,0,0,1,9.92,26.05c.12,8.12,0,16.25,0,24.67H354.65c0-2.79-.19-5.41,0-8,.81-9.51-4-15.63-12.09-19.3-15.35-6.94-30.89-6.57-45.75,1.13-16.61,8.62-18.9,26.88-5.38,39.84,9.58,9.18,21.86,13.81,33.61,19.28,12.21,5.69,24.66,10.93,36.57,17.18,14,7.35,26.31,17,34.81,30.75,19.74,31.87,14,83.55-32.8,106.06-8.3,4-17.43,6.25-26.89,9.56v33.22Z" transform="translate(-69.74 -118.01)"/></svg>