<?xml version="1.0" encoding="utf-8"?>
<!-- Generator: Adobe Illustrator 23.0.5, SVG Export Plug-In . SVG Version: 6.00 Build 0)  -->
<svg version="1.1" id="Layer_1" xmlns="http://www.w3.org/2000/svg" xmlns:xlink="http://www.w3.org/1999/xlink" x="0px" y="0px"
	 viewBox="0 0 612 792" style="enable-background:new 0 0 612 792;" xml:space="preserve">
<style type="text/css">
	.st0{fill:#F7F7F7;}
</style>
<g>
	<path class="st0" d="M288.08,468.1c-2.15-0.63-4.35-1.14-6.45-1.9c-5.86-2.13-10.49-5.82-13.63-11.26
		c-26.73-46.36-53.74-92.55-80.04-139.15c-12.38-21.94-17.48-45.93-14.71-71.18c3.15-28.72,15.09-53.33,35.87-73.48
		c16.21-15.72,35.48-26.05,57.53-30.7c25.78-5.44,50.91-2.95,74.95,8.13c27.73,12.78,47.87,33.3,59.94,61.25
		c11.59,26.83,12.94,54.51,4.39,82.55c-3.24,10.64-7.92,20.64-13.47,30.25c-24.85,42.98-49.8,85.89-74.47,128.98
		c-5.12,8.94-12.19,14.46-22.15,16.51C293.24,468.1,290.66,468.1,288.08,468.1z M248.36,248.82c0.09,23.95,19.68,43.53,43.57,43.55
		c23.98,0.03,43.91-20,43.6-43.83c-0.31-24.13-19.8-43.44-43.73-43.31C267.8,205.36,248.27,224.95,248.36,248.82z"/>
</g>
</svg>
